<?xml version="1.0" encoding="utf-8"?>
<!-- Generator: Adobe Illustrator 15.0.2, SVG Export Plug-In . SVG Version: 6.00 Build 0)  -->
<!DOCTYPE svg PUBLIC "-//W3C//DTD SVG 1.1//EN" "http://www.w3.org/Graphics/SVG/1.1/DTD/svg11.dtd">
<svg version="1.1" id="Слой_1" xmlns="http://www.w3.org/2000/svg" xmlns:xlink="http://www.w3.org/1999/xlink" x="0px" y="0px"
	 width="30.8px" height="30.8px" viewBox="-0.4 -0.4 30.8 30.8" enable-background="new -0.4 -0.4 30.8 30.8" xml:space="preserve">
<title>twitter-with-circle</title>
<circle fill="none" stroke="#CCCCCC" stroke-width="2" stroke-miterlimit="10" cx="15" cy="15" r="14.4"/>
<path fill="#CCCCCC" d="M10.082,11.634c0,1.14,0.381,1.963,1.131,2.446c0.615,0.397,1.328,0.458,1.698,0.458
	c0.09,0,0.163-0.006,0.214-0.01c0,0-0.118,0.768,0.449,1.524h-0.026c-0.984,0-4.192,0.203-4.192,2.844
	c0,2.684,2.947,2.818,3.537,2.818c0.048,0,0.076-0.002,0.076-0.002c0.006,0,0.048,0.002,0.121,0.002c0.379,0,1.36-0.047,2.269-0.49
	c1.182-0.572,1.78-1.571,1.78-2.965c0-1.346-0.912-2.146-1.578-2.731c-0.407-0.359-0.759-0.667-0.759-0.967
	c0-0.306,0.257-0.536,0.582-0.826c0.526-0.469,1.02-1.138,1.02-2.403c0-1.112-0.145-1.859-1.032-2.333
	c0.092-0.047,0.42-0.081,0.583-0.105c0.48-0.066,1.185-0.14,1.185-0.533V8.285h-3.507C13.594,8.287,10.082,8.416,10.082,11.634z
	 M15.747,18.511c0.066,1.07-0.851,1.863-2.23,1.964c-1.399,0.103-2.552-0.526-2.619-1.599c-0.034-0.518,0.194-1.021,0.637-1.422
	c0.449-0.408,1.067-0.66,1.739-0.707c0.079-0.006,0.158-0.011,0.235-0.011C14.805,16.737,15.684,17.5,15.747,18.511z M14.829,10.899
	c0.344,1.212-0.175,2.476-1.004,2.711c-0.095,0.026-0.193,0.04-0.292,0.04c-0.759,0-1.51-0.769-1.79-1.826
	c-0.155-0.592-0.143-1.112,0.036-1.612c0.176-0.492,0.493-0.822,0.889-0.935c0.094-0.026,0.193-0.04,0.292-0.04
	C13.876,9.237,14.466,9.617,14.829,10.899z M20.772,13.474v-2.29h-1.526v2.29h-2.287V15h2.287v2.289h1.526V15h2.289v-1.526H20.772z"
	/>
</svg>
