<?xml version="1.0" encoding="utf-8"?>
<!-- Generator: Adobe Illustrator 15.0.2, SVG Export Plug-In . SVG Version: 6.00 Build 0)  -->
<!DOCTYPE svg PUBLIC "-//W3C//DTD SVG 1.1//EN" "http://www.w3.org/Graphics/SVG/1.1/DTD/svg11.dtd">
<svg version="1.1" id="Слой_1" xmlns="http://www.w3.org/2000/svg" xmlns:xlink="http://www.w3.org/1999/xlink" x="0px" y="0px"
	 width="30.8px" height="30.8px" viewBox="-0.4 -0.4 30.8 30.8" enable-background="new -0.4 -0.4 30.8 30.8" xml:space="preserve">
<title>linkedin-with-circle</title>
<circle fill="none" stroke="#CCCCCC" stroke-width="2" stroke-miterlimit="10" cx="15" cy="15" r="14.4"/>
<rect x="8.559" y="11.584" fill="#CCCCCC" width="2.916" height="9.382"/>
<path fill="#CCCCCC" d="M9.999,10.433c-0.921,0-1.517-0.652-1.517-1.459c0-0.824,0.614-1.457,1.554-1.457s1.517,0.633,1.534,1.457
	C11.571,9.78,10.977,10.433,9.999,10.433z"/>
<path fill="#CCCCCC" d="M22.125,20.969h-2.914v-5.201c0-1.21-0.425-2.031-1.479-2.031c-0.804,0-1.282,0.557-1.494,1.092
	c-0.079,0.19-0.097,0.46-0.097,0.729v5.41h-2.919v-6.392c0-1.172-0.038-2.151-0.077-2.994h2.533l0.134,1.304h0.059
	c0.384-0.612,1.324-1.515,2.897-1.515c1.919,0,3.357,1.286,3.357,4.048V20.969z"/>
</svg>
