<?xml version="1.0" encoding="utf-8"?>
<!-- Generator: Adobe Illustrator 15.0.2, SVG Export Plug-In . SVG Version: 6.00 Build 0)  -->
<!DOCTYPE svg PUBLIC "-//W3C//DTD SVG 1.1//EN" "http://www.w3.org/Graphics/SVG/1.1/DTD/svg11.dtd">
<svg version="1.1" id="Слой_1" xmlns="http://www.w3.org/2000/svg" xmlns:xlink="http://www.w3.org/1999/xlink" x="0px" y="0px"
	 width="30.8px" height="30.8px" viewBox="-0.4 -0.4 30.8 30.8" enable-background="new -0.4 -0.4 30.8 30.8" xml:space="preserve">
<title>twitter-with-circle</title>
<circle fill="none" stroke="#CCCCCC" stroke-width="2" stroke-miterlimit="10" cx="15" cy="15" r="14.4"/>
<path fill="#CCCCCC" d="M20.855,12.396c0.008,0.123,0.01,0.246,0.01,0.366c0,3.75-2.852,8.072-8.069,8.072
	c-1.602,0-3.093-0.469-4.347-1.275c0.22,0.027,0.447,0.037,0.676,0.037c1.329,0,2.552-0.451,3.522-1.215
	c-1.24-0.023-2.288-0.843-2.649-1.968c0.172,0.031,0.35,0.05,0.533,0.05c0.258,0,0.51-0.035,0.747-0.1
	c-1.297-0.261-2.275-1.407-2.275-2.781v-0.033c0.383,0.211,0.821,0.341,1.286,0.356c-0.762-0.51-1.262-1.377-1.262-2.363
	c0-0.519,0.14-1.008,0.384-1.426c1.399,1.716,3.487,2.844,5.845,2.965c-0.049-0.208-0.073-0.424-0.073-0.648
	c0-1.564,1.269-2.836,2.838-2.836c0.814,0,1.551,0.345,2.068,0.897c0.647-0.129,1.254-0.363,1.8-0.688
	c-0.212,0.661-0.66,1.218-1.247,1.57c0.574-0.07,1.121-0.222,1.629-0.448C21.895,11.496,21.41,11.997,20.855,12.396z"/>
</svg>
